HIERARCHY
ROOT Hips
{
	OFFSET 0.00000 0.00000 0.00000
	CHANNELS 6 Xposition Yposition Zposition Zrotation Yrotation Xrotation 
	JOINT LHipJoint
	{
		OFFSET 0 0 0
		CHANNELS 3 Zrotation Yrotation Xrotation
		JOINT LeftUpLeg
		{
			OFFSET 1.56857 -1.73443 1.15205
			CHANNELS 3 Zrotation Yrotation Xrotation
			JOINT LeftLeg
			{
				OFFSET 2.39362 -6.57643 0.00000
				CHANNELS 3 Zrotation Yrotation Xrotation
				JOINT LeftFoot
				{
					OFFSET 2.50952 -6.89485 0.00000
					CHANNELS 3 Zrotation Yrotation Xrotation
					JOINT LeftToeBase
					{
						OFFSET 0.17171 -0.47178 1.88682
						CHANNELS 3 Zrotation Yrotation Xrotation
						End Site
						{
							OFFSET 0.00000 -0.00000 0.98146
						}
					}
				}
			}
		}
	}
	JOINT RHipJoint
	{
		OFFSET 0 0 0
		CHANNELS 3 Zrotation Yrotation Xrotation
		JOINT RightUpLeg
		{
			OFFSET -1.28153 -1.73443 1.15205
			CHANNELS 3 Zrotation Yrotation Xrotation
			JOINT RightLeg
			{
				OFFSET -2.26861 -6.23296 0.00000
				CHANNELS 3 Zrotation Yrotation Xrotation
				JOINT RightFoot
				{
					OFFSET -2.54143 -6.98254 0.00000
					CHANNELS 3 Zrotation Yrotation Xrotation
					JOINT RightToeBase
					{
						OFFSET -0.23309 -0.64041 1.93119
						CHANNELS 3 Zrotation Yrotation Xrotation
						End Site
						{
							OFFSET -0.00000 -0.00000 1.02013
						}
					}
				}
			}
		}
	}
	JOINT LowerBack
	{
		OFFSET 0 0 0
		CHANNELS 3 Zrotation Yrotation Xrotation
		JOINT Spine
		{
			OFFSET -0.07096 2.10460 -0.27878
			CHANNELS 3 Zrotation Yrotation Xrotation
			JOINT Spine1
			{
				OFFSET -0.00826 2.13662 -0.08279
				CHANNELS 3 Zrotation Yrotation Xrotation
				JOINT Neck
				{
					OFFSET 0 0 0
					CHANNELS 3 Zrotation Yrotation Xrotation
					JOINT Neck1
					{
						OFFSET 0.03239 1.77799 0.24435
						CHANNELS 3 Zrotation Yrotation Xrotation
						JOINT Head
						{
							OFFSET 0.01026 1.74194 -0.49664
							CHANNELS 3 Zrotation Yrotation Xrotation
							End Site
							{
								OFFSET 0.00170 1.83057 -0.19653
							}
						}
					}
				}
				JOINT LeftShoulder
				{
					OFFSET 0 0 0
					CHANNELS 3 Zrotation Yrotation Xrotation
					JOINT LeftArm
					{
						OFFSET 3.19178 1.35907 -0.31412
						CHANNELS 3 Zrotation Yrotation Xrotation
						JOINT LeftForeArm
						{
							OFFSET 4.85247 -0.00000 -0.00000
							CHANNELS 3 Zrotation Yrotation Xrotation
							JOINT LeftHand
							{
								OFFSET 3.55584 -0.00000 0.00000
								CHANNELS 3 Zrotation Yrotation Xrotation
								JOINT LeftFingerBase
								{
									OFFSET 0 0 0
									CHANNELS 3 Zrotation Yrotation Xrotation
									JOINT LeftHandIndex1
									{
										OFFSET 0.69320 -0.00000 0.00000
										CHANNELS 3 Zrotation Yrotation Xrotation
										End Site
										{
											OFFSET 0.55888 -0.00000 0.00000
										}
									}
								}
								JOINT LThumb
								{
									OFFSET 0 0 0
									CHANNELS 3 Zrotation Yrotation Xrotation
									End Site
									{
										OFFSET 0.56741 -0.00000 0.56741
									}
								}
							}
						}
					}
				}
				JOINT RightShoulder
				{
					OFFSET 0 0 0
					CHANNELS 3 Zrotation Yrotation Xrotation
					JOINT RightArm
					{
						OFFSET -3.28999 1.24191 -0.26899
						CHANNELS 3 Zrotation Yrotation Xrotation
						JOINT RightForeArm
						{
							OFFSET -4.64462 -0.00000 0.00000
							CHANNELS 3 Zrotation Yrotation Xrotation
							JOINT RightHand
							{
								OFFSET -3.40703 -0.00000 0.00000
								CHANNELS 3 Zrotation Yrotation Xrotation
								JOINT RightFingerBase
								{
									OFFSET 0 0 0
									CHANNELS 3 Zrotation Yrotation Xrotation
									JOINT RightHandIndex1
									{
										OFFSET -0.61958 -0.00000 0.00000
										CHANNELS 3 Zrotation Yrotation Xrotation
										End Site
										{
											OFFSET -0.49952 -0.00000 0.00000
										}
									}
								}
								JOINT RThumb
								{
									OFFSET 0 0 0
									CHANNELS 3 Zrotation Yrotation Xrotation
									End Site
									{
										OFFSET -0.50715 -0.00000 0.50715
									}
								}
							}
						}
					}
				}
			}
		}
	}
}
MOTION
Frames: 7
Frame Time: 0.0215054
0.00 0.00 0.00 0 0 0 0 0 0 -21 0 0 0 0 0 0 0 0 0 0 0 0 0 0 21 0 0 0 0 0 0 0 0 0 0 0 0 0 0 0 0 0 0 0 0 0 0 -16 0 0 21 0 0 11 0 0 0 -8 0 0 0 0 0 0 0 0 0 0 0 0 0 0 0 0 0 0 0 0 8 0 0 0 0 0 0 0 0 0 0 0 0 0 0 0 0 0
0.00 0.00 0.00 6.8079 -41.1565 -13.7067 0.0000 0.0000 0.0000 5.6226 18.1448 10.3987 17.7962 19.8832 83.5445 0.3666 -0.8738 -11.1640 0.0209 0.9325 2.5632 0.0000 0.0000 0.0000 22.7584 5.9906 -5.0869 -3.5423 -11.5250 34.0718 -0.4719 10.6490 -13.3844 -2.5722 -9.9681 28.8734 -13.9923 -4.1206 13.9440 -0.5381 -7.7078 1.0486 8.5306 -3.5243 -4.9182 -0.2282 -3.1368 -17.5122 7.4807 -6.0117 17.9703 1.8023 -2.0964 8.7725 0.0000 -0.0000 0.0000 -16.2696 -54.4930 6.0632 80.0912 -59.6257 -51.4296 -0.0000 0.0000 -8.0980 51.1523 -43.5497 -40.5458 -7.1250 0.0000 -0.0000 5.9379 -26.3646 -7.9860 0.0000 -0.0000 0.0000 -24.1462 11.8684 -59.2985 -86.2538 59.9469 -56.7563 0.0000 -0.0000 -38.5206 -34.7804 -40.9673 24.4817 7.1250 -0.0000 -0.0000 3.0900 -76.5545 -2.2872
0.00 0.00 0.00 7.0750 -47.9646 -11.2447 0.0000 0.0000 0.0000 -1.6958 11.1142 9.2943 13.5459 18.9705 70.8128 0.7037 -4.6118 -14.9599 0.7249 -5.4404 -15.1691 0.0000 0.0000 0.0000 16.9045 4.0645 -13.1913 -3.1055 -10.8639 31.8222 0.4234 12.1438 0.1215 -2.5365 -9.9040 28.6664 -12.3973 -3.9468 14.2339 1.2533 -7.1302 1.5322 9.5299 -3.3166 -4.6357 -0.7052 -3.7576 -17.4355 8.4160 -6.8770 17.1091 2.0808 -2.4719 8.5605 0.0000 0.0000 0.0000 -35.7885 -48.1495 22.1219 95.2627 -59.8951 -64.5560 -0.0000 0.0000 -2.5618 77.0721 -41.6593 -70.9485 -7.1250 0.0000 -0.0000 18.9610 -43.5576 -27.3404 0.0000 0.0000 0.0000 -12.6411 20.8490 -50.5045 -107.3065 58.8375 -74.9294 0.0000 -0.0000 -33.5776 -30.7114 -40.7486 21.1936 7.1250 -0.0000 -0.0000 9.9807 -74.8500 -7.0416
0.00 0.00 0.00 9.4546 -57.4581 -10.8998 0.0000 0.0000 0.0000 -11.0837 5.5718 7.5054 9.7656 17.2759 58.7020 1.0784 -2.3840 -18.9771 0.7531 -5.5426 -15.4629 0.0000 0.0000 0.0000 11.6158 -1.6748 -22.6021 -2.4589 -9.7628 28.2121 -0.1510 6.9006 12.8439 -3.9761 -12.1285 36.1881 -10.5454 -2.4119 16.7971 2.2938 -5.0162 2.2876 9.5427 -2.2613 -5.8023 0.3621 -4.2197 -20.8161 7.3075 -7.6960 17.8482 1.3704 -2.7751 9.3695 0.0000 -0.0000 0.0000 -52.0258 -36.8970 35.8425 102.4715 -59.4041 -70.7790 -0.0000 0.0000 -4.6454 79.3215 -39.0949 -73.3524 -7.1250 0.0000 -0.0000 21.9196 -44.0463 -31.8024 0.0000 -0.0000 0.0000 16.0363 22.7072 -26.9921 -117.3782 56.9690 -83.4690 0.0000 -0.0000 -27.0214 -23.9637 -25.9865 11.0204 7.1250 -0.0000 -0.0000 6.6329 -57.9333 -2.1056
0.00 0.00 0.00 16.1961 -72.5111 -14.6547 0.0000 0.0000 0.0000 -19.3019 0.0333 4.1566 5.8052 14.2369 44.1950 1.4685 1.4382 -23.4607 0.2921 -3.4753 -9.6051 0.0000 0.0000 0.0000 10.0082 1.0479 -33.9566 -3.3291 -11.2097 32.9905 0.0232 3.0846 -0.4642 -1.5965 -7.9696 22.6218 -7.4098 1.0298 21.1902 2.1908 -0.2938 3.0516 6.7650 0.0546 -8.4647 1.9685 -5.2631 -22.2025 6.4734 -9.2302 15.4732 0.6023 -3.5362 8.7260 0.0000 0.0000 0.0000 -65.0100 -21.9345 43.0801 93.8756 -59.9432 -63.3557 -0.0000 0.0000 -11.0071 48.7749 -29.2668 -29.1592 -7.1250 0.0000 -0.0000 9.9537 -9.8606 -11.6734 0.0000 0.0000 0.0000 34.9682 29.9078 -5.3941 -106.1897 58.9861 -73.9730 0.0000 -0.0000 -26.5709 -19.3492 -33.2937 10.9106 7.1250 -0.0000 -0.0000 16.5264 -64.0876 -7.7462
0.00 0.00 0.00 51.7429 -83.6815 -48.0655 0.0000 0.0000 0.0000 -23.0606 -5.3818 2.0215 2.9633 10.6354 31.0599 1.2218 2.0927 -21.7308 1.3376 -7.3231 -20.6761 0.0000 0.0000 0.0000 6.0625 8.5468 -43.3083 -6.9498 -15.2894 48.6841 -0.0308 1.2585 -3.1151 -0.9225 -6.1192 17.1306 -6.6751 3.7960 22.9143 0.9868 3.1525 4.2853 3.9792 1.5669 -8.4710 1.4866 -6.5631 -22.2269 8.8677 -11.1406 13.1437 1.2213 -4.3355 8.1811 0.0000 -0.0000 0.0000 -71.3605 -13.4514 40.1723 75.5182 -59.1925 -47.4924 -0.0000 0.0000 -18.6353 19.7971 -15.3955 -5.4588 -7.1250 0.0000 -0.0000 -5.2693 13.7172 3.8863 0.0000 -0.0000 0.0000 49.3236 35.1007 10.5693 -85.6138 59.9272 -56.2024 0.0000 -0.0000 -27.6544 -27.1425 -32.4752 15.3904 7.1250 -0.0000 -0.0000 6.4665 -65.4442 -3.2004
0.00 0.00 0.00 142.4870 -81.4632 -138.5600 0.0000 0.0000 0.0000 -23.2650 -2.2519 -3.2215 2.8314 10.4170 30.3380 1.9170 1.0452 -26.5816 1.2785 -7.1658 -20.2076 0.0000 0.0000 0.0000 0.3882 14.0559 -48.9331 -12.8250 -18.7181 68.5810 -0.0279 0.7348 -2.9822 -0.5727 -4.8464 13.4709 -7.2630 5.8882 24.5963 0.2524 5.3420 5.8594 2.7777 2.4634 -7.8206 -1.6243 -8.9463 -23.6639 11.9981 -14.2658 13.9106 2.1896 -5.5395 9.3155 0.0000 -0.0000 0.0000 -76.9117 -7.9639 36.9721 47.4361 -51.9076 -24.1412 -0.0000 0.0000 -24.9761 17.0307 -15.6339 -4.7190 -7.1250 0.0000 -0.0000 -7.1404 13.7573 5.2795 0.0000 -0.0000 0.0000 62.5983 41.1259 25.4774 -57.2017 55.5170 -32.0234 0.0000 -0.0000 -15.6514 -24.9680 -28.0768 12.3610 7.1250 -0.0000 -0.0000 6.4912 -60.3367 -2.4340
